<svg viewBox="0 0 1002 759" fill="none" xmlns="http://www.w3.org/2000/svg">
<g opacity="0.4">
<g opacity="0.6" filter="url(#filter0_f_694_490)">
<path d="M453.361 378.723L201.017 270.777C189.567 265.879 180.194 257.126 174.524 246.038C155.735 209.293 184.037 166.054 225.23 168.571L504.557 185.634C525.982 186.943 546.908 192.646 566.035 202.389L687.469 264.243C720.502 281.069 746.488 309.077 760.797 343.276L823.293 492.648C830.058 508.817 833.542 526.17 833.542 543.697C835.03 587.808 778.645 607.364 752.501 571.805L736.551 550.113C733.131 545.46 728.976 541.395 724.249 538.077L597.22 448.906C589.843 443.727 582.032 439.195 573.874 435.361L453.361 378.723Z" fill="url(#paint0_linear_694_490)" fill-opacity="0.75"/>
<path d="M453.361 378.723L201.017 270.777C189.567 265.879 180.194 257.126 174.524 246.038C155.735 209.293 184.037 166.054 225.23 168.571L504.557 185.634C525.982 186.943 546.908 192.646 566.035 202.389L687.469 264.243C720.502 281.069 746.488 309.077 760.797 343.276L823.293 492.648C830.058 508.817 833.542 526.17 833.542 543.697C835.03 587.808 778.645 607.364 752.501 571.805L736.551 550.113C733.131 545.46 728.976 541.395 724.249 538.077L597.22 448.906C589.843 443.727 582.032 439.195 573.874 435.361L453.361 378.723Z" fill="url(#paint1_linear_694_490)" fill-opacity="0.6"/>
</g>
<g filter="url(#filter1_f_694_490)">
<path d="M802.677 521.039C799.889 523.976 784.516 495.916 752.288 469.326C710.722 435.031 653.566 385.395 587.432 322.626C470.02 211.189 393.586 182.006 399.968 175.281C406.351 168.556 527.161 175.716 644.573 287.153C712.874 368.306 744.223 429.707 772.519 462.603C800.815 495.5 805.554 518.008 802.677 521.039Z" fill="url(#paint2_linear_694_490)"/>
</g>
<g filter="url(#filter2_f_694_490)">
<path d="M710.644 491.967C706.297 496.095 655.112 447.145 593.147 387.222C567.944 362.849 535.918 341.25 509.276 313.195C417.133 216.164 297.89 268.774 304.004 262.967C310.119 257.161 486.25 209.895 578.393 306.926C670.536 403.958 716.758 486.161 710.644 491.967Z" fill="url(#paint3_linear_694_490)"/>
</g>
<g filter="url(#filter3_f_694_490)">
<path d="M549.685 381.992C542.064 389.614 459.182 319.088 364.563 224.469C269.944 129.851 442.953 356.383 450.574 348.762C458.196 341.14 297.543 102.252 392.162 196.87C486.781 291.489 557.306 374.371 549.685 381.992Z" fill="url(#paint4_linear_694_490)"/>
</g>
</g>
<defs>
<filter id="filter0_f_694_490" x="0.346375" y="0.216736" width="1001.47" height="758.238" filterUnits="userSpaceOnUse" color-interpolation-filters="sRGB">
<feFlood flood-opacity="0" result="BackgroundImageFix"/>
<feBlend mode="normal" in="SourceGraphic" in2="BackgroundImageFix" result="shape"/>
<feGaussianBlur stdDeviation="84.1244" result="effect1_foregroundBlur_694_490"/>
</filter>
<filter id="filter1_f_694_490" x="340.71" y="114.602" width="521.585" height="465.536" filterUnits="userSpaceOnUse" color-interpolation-filters="sRGB">
<feFlood flood-opacity="0" result="BackgroundImageFix"/>
<feBlend mode="normal" in="SourceGraphic" in2="BackgroundImageFix" result="shape"/>
<feGaussianBlur stdDeviation="29.4435" result="effect1_foregroundBlur_694_490"/>
</filter>
<filter id="filter2_f_694_490" x="244.891" y="187.485" width="525.177" height="363.612" filterUnits="userSpaceOnUse" color-interpolation-filters="sRGB">
<feFlood flood-opacity="0" result="BackgroundImageFix"/>
<feBlend mode="normal" in="SourceGraphic" in2="BackgroundImageFix" result="shape"/>
<feGaussianBlur stdDeviation="29.4435" result="effect1_foregroundBlur_694_490"/>
</filter>
<filter id="filter3_f_694_490" x="277.456" y="115.849" width="331.68" height="325.594" filterUnits="userSpaceOnUse" color-interpolation-filters="sRGB">
<feFlood flood-opacity="0" result="BackgroundImageFix"/>
<feBlend mode="normal" in="SourceGraphic" in2="BackgroundImageFix" result="shape"/>
<feGaussianBlur stdDeviation="29.4435" result="effect1_foregroundBlur_694_490"/>
</filter>
<linearGradient id="paint0_linear_694_490" x1="345.846" y1="326.492" x2="930.563" y2="630.813" gradientUnits="userSpaceOnUse">
<stop stop-color="white"/>
<stop offset="1" stop-color="#A6A6A6"/>
</linearGradient>
<linearGradient id="paint1_linear_694_490" x1="417.809" y1="375.084" x2="838.43" y2="338.703" gradientUnits="userSpaceOnUse">
<stop stop-color="white"/>
<stop offset="1" stop-color="#383838"/>
</linearGradient>
<linearGradient id="paint2_linear_694_490" x1="531.059" y1="265.829" x2="802.408" y2="523.37" gradientUnits="userSpaceOnUse">
<stop stop-color="#FEFFE6"/>
<stop offset="1" stop-color="#E0E1A5" stop-opacity="0.19"/>
</linearGradient>
<linearGradient id="paint3_linear_694_490" x1="487.743" y1="265.963" x2="700.693" y2="490.211" gradientUnits="userSpaceOnUse">
<stop stop-color="#FFEAE6" stop-opacity="0.52"/>
<stop offset="1" stop-color="#F8D5CD" stop-opacity="0.25"/>
</linearGradient>
<linearGradient id="paint4_linear_694_490" x1="548.003" y1="396.083" x2="412.841" y2="232.157" gradientUnits="userSpaceOnUse">
<stop stop-color="#FEFFE6"/>
<stop offset="1" stop-color="#745A2C" stop-opacity="0.12"/>
</linearGradient>
</defs>
</svg>
